<?xml version="1.0" encoding="UTF-8"?>
<svg width="210px" height="72px" viewBox="0 0 210 72" version="1.1" xmlns="http://www.w3.org/2000/svg" xmlns:xlink="http://www.w3.org/1999/xlink">
    <title>pay_with_iyzico_colored</title>
    <defs>
        <linearGradient x1="90.2554899%" y1="50%" x2="0%" y2="50%" id="linearGradient-1">
            <stop stop-color="#1E64FF" offset="0%"></stop>
            <stop stop-color="#1E64FF" stop-opacity="0" offset="100%"></stop>
        </linearGradient>
    </defs>
    <g id="05---Landings" stroke="none" stroke-width="1" fill="none" fill-rule="evenodd">
        <g id="004.0.0-Brand-Kit" transform="translate(-615.000000, -2343.000000)">
            <g id="Group-2-Copy" transform="translate(135.000000, 1674.000000)">
                <g id="Group-4-Copy-5" transform="translate(400.000000, 580.000000)">
                    <g id="Group" transform="translate(80.000000, 88.000000)">
                        <g id="Group" transform="translate(0.000000, 1.761905)">
                            <g transform="translate(98.823529, 28.190476)" fill="#1E64FF" id="Group-21">
                                <path d="M26.3460933,10.3200443 C27.0539156,8.96310311 28.7326775,8.43380144 30.0971348,9.14030611 C31.4620553,9.84819518 31.991764,11.5221636 31.2800041,12.8816429 L31.2800041,12.8816429 L18.5922422,37.2708209 C18.1146474,38.182678 17.199296,38.7184402 16.2385476,38.7585878 C15.76628,38.7816611 15.2835896,38.684984 14.8356418,38.448944 C13.4709529,37.7433623 12.9417075,36.0693938 13.6513828,34.7096838 L13.6513828,34.7096838 L17.2391342,27.8061503 L9.46860667,12.8816429 C8.75893139,11.5221636 9.2918827,9.84819518 10.6549503,9.14030611 C12.0177862,8.43380144 13.6997908,8.96310311 14.4064551,10.3200443 L14.4064551,10.3200443 L20.3759267,21.7842478 Z M77.4121868,8.45791305 C80.4222847,8.45791305 83.2519528,9.6254224 85.3812103,11.7467823 C86.4637894,12.8300741 86.4637894,14.5852605 85.3812103,15.6687831 C84.2923776,16.7488446 82.5300018,16.7488446 81.4441801,15.6687831 C80.3653069,14.5935669 78.9376181,14.0047361 77.4121868,14.0047361 C75.8909246,14.0047361 74.4609197,14.5935669 73.3850575,15.6687831 C72.3080372,16.7370772 71.7162551,18.1641612 71.7162551,19.6814619 C71.7162551,21.1973782 72.3080372,22.6228472 73.3850575,23.6959867 C74.4609197,24.7647423 75.8909246,25.3621102 77.4121868,25.3621102 C78.9376181,25.3621102 80.3653069,24.7647423 81.4441801,23.6959867 C82.5300018,22.6115412 84.2923776,22.6115412 85.3812103,23.6959867 C86.4637894,24.7785863 86.4637894,26.5349264 85.3812103,27.6131421 C83.2519528,29.7349634 80.4222847,30.9043186 77.4121868,30.9043186 C74.4057948,30.9043186 71.5775164,29.7349634 69.4498802,27.6131421 C67.3220125,25.4982427 66.1493343,22.6777616 66.1493343,19.6814619 C66.1493343,16.681932 67.3220125,13.8681422 69.4498802,11.7467823 C71.5775164,9.6254224 74.4057948,8.45791305 77.4121868,8.45791305 Z M99.9116497,8.45784383 C106.123161,8.45784383 111.176355,13.4922088 111.176355,19.6813927 C111.176355,25.869423 106.123161,30.9044801 99.9116497,30.9044801 C93.7026858,30.9044801 88.6501868,25.869423 88.6501868,19.6813927 C88.6501868,13.4922088 93.7026858,8.45784383 99.9116497,8.45784383 Z M3.07344564,8.828355 C4.61022617,8.828355 5.85609542,10.0696989 5.85609542,11.5966904 L5.85609542,11.5966904 L5.85609542,27.8112264 C5.85609542,29.3435247 4.61022617,30.5816384 3.07344564,30.5816384 C1.53666511,30.5816384 0.290332633,29.3435247 0.290332633,27.8112264 L0.290332633,27.8112264 L0.290332633,11.5966904 C0.290332633,10.0696989 1.53666511,8.828355 3.07344564,8.828355 Z M48.9244673,8.82696086 C48.991169,8.82698582 49.0553,8.82701256 49.1167131,8.82704114 L49.9563717,8.82793487 C49.9886721,8.82805012 50.0059797,8.82817461 50.0071167,8.82830885 L50.2066735,8.82855897 C50.8051493,8.85045461 51.3983721,9.06305668 51.8917863,9.47713025 C53.0674756,10.4561307 53.2212694,12.2076254 52.2355064,13.3790573 L52.2355064,13.3790573 L42.4126183,25.037538 L50.099532,25.037538 C51.6374706,25.037538 52.8851928,26.2821122 52.8851928,27.8111803 C52.8851928,29.3437093 51.6374706,30.5815923 50.099532,30.5815923 L50.099532,30.5815923 L36.4461577,30.5815923 C35.814769,30.5815923 35.1782848,30.3723174 34.6571459,29.9330016 C33.4814567,28.9512324 33.3262732,27.2043523 34.3150472,26.0287673 L34.3150472,26.0287673 L44.136314,14.374209 L37.7156519,14.374209 C36.1770184,14.374209 34.9330021,13.1296348 34.9330021,11.596875 C34.9330021,10.0696528 36.1770184,8.82830885 37.7156519,8.82830885 L37.7156519,8.82830885 L38.7843468,8.8280093 C38.8506867,8.82799155 38.9196077,8.82797324 38.9909625,8.82795444 L43.3479972,8.82700386 C43.459249,8.8269854 43.5707267,8.82696745 43.6822832,8.82695007 Z M59.7206119,8.828355 C61.2604034,8.828355 62.5032617,10.0696989 62.5032617,11.5966904 L62.5032617,11.5966904 L62.5032617,27.8112264 C62.5032617,29.3435247 61.2604034,30.5816384 59.7206119,30.5816384 C58.1852211,30.5816384 56.9412048,29.3435247 56.9412048,27.8112264 L56.9412048,27.8112264 L56.9412048,11.5966904 C56.9412048,10.0696989 58.1852211,8.828355 59.7206119,8.828355 Z M99.9116497,14.0046669 C96.770688,14.0046669 94.2171077,16.5505756 94.2171077,19.6813927 C94.2171077,22.8112869 96.770688,25.362041 99.9116497,25.362041 C103.054696,25.362041 105.611982,22.8112869 105.611982,19.6813927 C105.611982,16.5505756 103.054696,14.0046669 99.9116497,14.0046669 Z M3.07344564,6.68248525e-15 C4.7702737,6.68248525e-15 6.14816478,1.37193885 6.14816478,3.06436595 C6.14816478,4.75333204 4.7702737,6.12780896 3.07344564,6.12780896 C1.37661759,6.12780896 -0.000115412095,4.75333204 -0.000115412095,3.06436595 C-0.000115412095,1.37193885 1.37661759,6.68248525e-15 3.07344564,6.68248525e-15 Z M59.7206119,6.68248525e-15 C61.4206826,6.68248525e-15 62.797184,1.37193885 62.797184,3.06436595 C62.797184,4.75333204 61.4206826,6.12780896 59.7206119,6.12780896 C58.0219309,6.12780896 56.6454295,4.75333204 56.6454295,3.06436595 C56.6454295,1.37193885 58.0219309,6.68248525e-15 59.7206119,6.68248525e-15 Z" id="Combined-Shape"></path>
                            </g>
                            <g transform="translate(98.823529, 0.000000)" fill="#495057" fill-rule="nonzero">
                                <path d="M13.918807,7.34540577 C13.918807,11.0181087 11.1350456,13.5989269 6.76056338,13.5989269 L2.98260149,13.5989269 L2.98260149,19.3561368 C2.98260149,20.1502347 2.28666114,20.8450704 1.49130075,20.8450704 C0.596520298,20.8450704 0,20.1502347 0,19.3561368 L0,2.77934272 C0,1.78672032 0.695940348,1.09188464 1.69014085,1.09188464 L6.76056338,1.09188464 C11.1350456,1.19114688 13.918807,3.87122736 13.918807,7.34540577 Z M11.0356255,7.34540577 C11.0356255,4.86384977 9.34548467,3.77196512 6.76056338,3.77196512 L3.08202154,3.77196512 L3.08202154,11.0181087 L6.76056338,11.0181087 C9.24606462,11.0181087 11.0356255,9.92622401 11.0356255,7.34540577 Z" id="Shape"></path>
                                <path d="M26.048053,8.73507713 L26.048053,7.54393025 C26.048053,6.74983233 26.7439934,6.05499665 27.5393538,6.05499665 C28.3347142,6.05499665 29.0306545,6.74983233 29.0306545,7.54393025 L29.0306545,19.3561368 C29.0306545,20.1502347 28.3347142,20.8450704 27.5393538,20.8450704 C26.7439934,20.8450704 26.048053,20.1502347 26.048053,19.3561368 L26.048053,17.8672032 C25.8492129,19.1576123 24.1590721,20.8450704 21.4747307,20.8450704 C18.3927092,20.8450704 14.6147473,18.4627767 14.6147473,13.4004024 C14.6147473,8.43729041 18.3927092,5.95573441 21.4747307,5.95573441 C23.4631317,6.05499665 25.2526926,7.04761905 26.048053,8.73507713 Z M26.1474731,13.4004024 C26.1474731,9.92622401 23.7613919,8.53655265 21.8724109,8.53655265 C19.8840099,8.53655265 17.4979287,10.1247485 17.4979287,13.4004024 C17.4979287,16.6760563 19.7845899,18.2642522 21.8724109,18.2642522 C23.8608119,18.3635144 26.1474731,16.8745808 26.1474731,13.4004024 Z" id="Shape"></path>
                                <path d="M44.9378625,7.44466801 C44.9378625,7.74245473 44.8384424,7.94097921 44.7390224,8.13950369 L37.2825186,25.1133467 C36.9842585,25.8081824 36.4871582,26.1059691 35.8906379,26.1059691 C35.0952775,26.1059691 34.5981773,25.5103957 34.5981773,24.81556 C34.5981773,24.5177733 34.6975973,24.3192488 34.7970174,24.1207243 L36.4871582,20.1502347 L31.1184756,8.13950369 C31.0190555,7.94097921 30.9196355,7.74245473 30.9196355,7.44466801 C30.9196355,6.74983233 31.5161558,6.15425889 32.3115162,6.15425889 C32.9080365,6.15425889 33.4051367,6.45204561 33.7033969,7.14688129 L37.8790389,16.8745808 L42.054681,7.14688129 C42.3529412,6.45204561 42.8500414,6.15425889 43.4465617,6.15425889 C44.3413422,6.05499665 44.9378625,6.74983233 44.9378625,7.44466801 Z" id="Path"></path>
                                <path d="M74.7638774,7.44466801 C74.7638774,7.64319249 74.6644573,7.84171697 74.5650373,8.13950369 L70.5882353,19.5546613 C70.2899751,20.249497 69.7928749,20.6465459 69.1963546,20.6465459 C68.5998343,20.6465459 68.003314,20.249497 67.7050539,19.5546613 L63.927092,10.323273 L60.1491301,19.5546613 C59.8508699,20.249497 59.3537697,20.6465459 58.7572494,20.6465459 C58.1607291,20.6465459 57.5642088,20.249497 57.3653687,19.5546613 L53.3885667,8.13950369 C53.2891466,7.84171697 53.1897266,7.74245473 53.1897266,7.44466801 C53.1897266,6.65057009 53.7862469,6.05499665 54.5816073,6.05499665 C55.0787075,6.05499665 55.6752278,6.35278337 55.8740679,6.84909457 L58.9560895,16.2790074 L62.6346313,6.94835681 C62.8334714,6.35278337 63.3305717,6.05499665 63.927092,6.05499665 C64.5236123,6.05499665 65.0207125,6.35278337 65.2195526,6.94835681 L68.8980944,16.2790074 L71.980116,6.84909457 C72.079536,6.35278337 72.6760563,6.05499665 73.2725766,6.05499665 C74.1673571,6.05499665 74.7638774,6.74983233 74.7638774,7.44466801 Z" id="Path"></path>
                                <path d="M76.9511185,1.9852448 C76.9511185,1.19114688 77.6470588,0.496311201 78.4424192,0.496311201 C79.2377796,0.496311201 79.93372,1.19114688 79.93372,1.9852448 C79.93372,2.77934272 79.2377796,3.4741784 78.4424192,3.4741784 C77.6470588,3.4741784 76.9511185,2.77934272 76.9511185,1.9852448 Z M79.93372,7.64319249 L79.93372,19.3561368 C79.93372,20.1502347 79.2377796,20.8450704 78.4424192,20.8450704 C77.6470588,20.8450704 76.9511185,20.1502347 76.9511185,19.3561368 L76.9511185,7.64319249 C76.9511185,6.84909457 77.6470588,6.15425889 78.4424192,6.15425889 C79.3371997,6.05499665 79.93372,6.74983233 79.93372,7.64319249 Z" id="Shape"></path>
                                <path d="M90.3728252,19.1576123 C90.3728252,20.3487592 89.0803645,20.8450704 87.4896437,20.8450704 C85.7995029,20.8450704 84.2087821,20.249497 84.2087821,17.0731053 L84.2087821,8.53655265 L83.1151616,8.53655265 C82.4192212,8.53655265 81.922121,8.04024145 81.922121,7.34540577 C81.922121,6.65057009 82.4192212,6.15425889 83.1151616,6.15425889 L84.2087821,6.15425889 L84.2087821,3.9704896 C84.2087821,3.17639168 84.9047225,2.481556 85.7000829,2.481556 C86.4954432,2.481556 87.1913836,3.17639168 87.1913836,3.9704896 L87.1913836,6.15425889 L89.1797846,6.15425889 C89.8757249,6.15425889 90.3728252,6.65057009 90.3728252,7.34540577 C90.3728252,8.04024145 89.8757249,8.53655265 89.1797846,8.53655265 L87.1913836,8.53655265 L87.1913836,17.0731053 C87.1913836,17.8672032 87.4896437,18.2642522 88.1855841,18.2642522 C88.5832643,18.2642522 88.9809445,18.1649899 89.2792046,18.1649899 C89.8757249,18.0657277 90.3728252,18.4627767 90.3728252,19.1576123 Z" id="Path"></path>
                                <path d="M105.683513,12.5070423 L105.683513,19.3561368 C105.683513,20.1502347 105.086993,20.8450704 104.192212,20.8450704 C103.396852,20.8450704 102.700911,20.1502347 102.700911,19.3561368 L102.700911,12.5070423 C102.700911,9.72769953 101.110191,8.63581489 99.3206297,8.63581489 C96.6362883,8.63581489 95.4432477,11.0181087 95.3438277,12.2092555 L95.3438277,19.3561368 C95.3438277,20.1502347 94.6478873,20.8450704 93.8525269,20.8450704 C93.0571665,20.8450704 92.3612262,20.1502347 92.3612262,19.3561368 L92.3612262,2.28303152 C92.3612262,1.4889336 93.0571665,0.794097921 93.8525269,0.794097921 C94.6478873,0.794097921 95.3438277,1.4889336 95.3438277,2.28303152 L95.3438277,9.42991281 C95.4432477,8.43729041 97.1333886,6.05499665 100.31483,6.05499665 C102.999171,6.05499665 105.683513,7.74245473 105.683513,12.5070423 Z" id="Path"></path>
                            </g>
                            <g id="Group-3" fill="url(#linearGradient-1)">
                                <path d="M8.73529412,0 C3.91108235,0 0,3.94353439 0,8.80952381 L0,61.6666667 C0,66.5326561 3.91108235,70.4761905 8.73529412,70.4761905 L62.3295529,70.4761905 C65.5868471,70.4761905 68.5731529,68.649291 70.0771765,65.734709 L83.7197647,39.3069206 C84.3657882,38.0540106 84.6942353,36.6844233 84.7058824,35.3132698 L84.7058824,35.1629206 C84.6942353,33.7917672 84.3657882,32.4221799 83.7197647,31.1700529 L70.0771765,4.74148148 C68.5731529,1.82768254 65.5868471,0 62.3295529,0 L8.73529412,0 Z" id="Fill-1"></path>
                            </g>
                        </g>
                    </g>
                </g>
            </g>
        </g>
    </g>
</svg>