<?xml version="1.0" encoding="UTF-8"?>
<svg width="210px" height="29px" viewBox="0 0 210 29" version="1.1" xmlns="http://www.w3.org/2000/svg" xmlns:xlink="http://www.w3.org/1999/xlink">
    <title>pay_with_iyzico_horizontal_white</title>
    <defs>
        <filter id="filter-1">
            <feColorMatrix in="SourceGraphic" type="matrix" values="0 0 0 0 1.000000 0 0 0 0 1.000000 0 0 0 0 1.000000 0 0 0 1.000000 0"></feColorMatrix>
        </filter>
        <linearGradient x1="90.2554899%" y1="50%" x2="0%" y2="50%" id="linearGradient-2">
            <stop stop-color="#1E64FF" offset="0%"></stop>
            <stop stop-color="#1E64FF" stop-opacity="0" offset="100%"></stop>
        </linearGradient>
    </defs>
    <g id="05---Landings" stroke="none" stroke-width="1" fill="none" fill-rule="evenodd">
        <g id="004.0.0-Brand-Kit" transform="translate(-215.000000, -2862.000000)">
            <g id="Group-2-Copy" transform="translate(135.000000, 1674.000000)">
                <g id="Group-4-Copy-8" transform="translate(0.000000, 1077.000000)">
                    <g id="Brand/1--Logo/2--aPayUcompany/1--Colored" transform="translate(80.000000, 89.000000)" filter="url(#filter-1)">
                        <g id="iyzico-ile-Ode_OneLine_TR" transform="translate(0.000000, 22.904762)">
                            <g id="Group-3" transform="translate(0.000000, 3.465565)" fill="url(#linearGradient-2)">
                                <path d="M2.60330579,0 C1.16558678,0 0,1.1635056 0,2.59917355 L0,18.1942149 C0,19.6298828 1.16558678,20.7933884 2.60330579,20.7933884 L22.2569917,20.7933884 C23.2277355,20.7933884 24.117719,20.2543776 24.5659504,19.3944555 L28.6317355,11.5971658 C28.8242645,11.2275056 28.9221488,10.8234208 28.9256198,10.4188738 L28.9256198,10.3745146 C28.9221488,9.96996768 28.8242645,9.56588283 28.6317355,9.19645363 L24.5659504,1.39893297 C24.117719,0.539241873 23.2277355,0 22.2569917,0 L2.60330579,0 Z" id="Fill-1"></path>
                            </g>
                            <g id="Group-21" transform="translate(130.342291, 0.000000)" fill="#1E64FF">
                                <path d="M18.8013574,7.38142914 C19.3064805,6.41087465 20.504495,6.03229074 21.4782124,6.5376194 C22.4522604,7.04393825 22.8302763,8.24124701 22.3223432,9.21361686 L22.3223432,9.21361686 L13.2679782,26.6580177 C12.9271523,27.310225 12.2739302,27.6934298 11.5883115,27.7221454 C11.2512873,27.7386487 10.9068251,27.6695002 10.5871562,27.5006722 C9.61327352,26.9960037 9.2355882,25.7986949 9.74203363,24.82616 L9.74203363,24.82616 L12.3023599,19.888396 L6.75707993,9.21361686 C6.25063449,8.24124701 6.63096444,7.04393825 7.60369009,6.5376194 C8.57625045,6.03229074 9.77657903,6.41087465 10.2808757,7.38142914 L10.2808757,7.38142914 L14.5408686,15.5812201 Z M55.2436437,6.04953661 C57.3917393,6.04953661 59.4110748,6.88459964 60.9305764,8.40190588 C61.7031371,9.17673216 61.7031371,10.4321323 60.9305764,11.2071236 C60.1535529,11.9796394 58.8958691,11.9796394 58.1209943,11.2071236 C57.3510783,10.4380734 56.332237,10.0169112 55.2436437,10.0169112 C54.1580257,10.0169112 53.1375316,10.4380734 52.3697642,11.2071236 C51.6011705,11.9712227 51.1788571,12.991947 51.1788571,14.0771989 C51.1788571,15.1614606 51.6011705,16.1810297 52.3697642,16.9485945 C53.1375316,17.7130238 54.1580257,18.1402922 55.2436437,18.1402922 C56.332237,18.1402922 57.3510783,17.7130238 58.1209943,16.9485945 C58.8958691,16.1729431 60.1535529,16.1729431 60.9305764,16.9485945 C61.7031371,17.7229257 61.7031371,18.979151 60.9305764,19.7503465 C59.4110748,21.2679828 57.3917393,22.1043661 55.2436437,22.1043661 C53.0981928,22.1043661 51.079849,21.2679828 49.5615045,19.7503465 C48.0429946,18.2376612 47.2061365,16.2203073 47.2061365,14.0771989 C47.2061365,11.93178 48.0429946,9.91921212 49.5615045,8.40190588 C51.079849,6.88459964 53.0981928,6.04953661 55.2436437,6.04953661 Z M71.299931,6.0494871 C75.7326509,6.0494871 79.3387606,9.65032512 79.3387606,14.0771494 C79.3387606,18.5031485 75.7326509,22.1044817 71.299931,22.1044817 C66.8690293,22.1044817 63.2634155,18.5031485 63.2634155,14.0771494 C63.2634155,9.65032512 66.8690293,6.0494871 71.299931,6.0494871 Z M2.19330241,6.31449584 C3.2899948,6.31449584 4.17908423,7.20236918 4.17908423,8.29455242 L4.17908423,8.29455242 L4.17908423,19.8920267 C4.17908423,20.9880057 3.2899948,21.8735686 2.19330241,21.8735686 C1.09661003,21.8735686 0.20719002,20.9880057 0.20719002,19.8920267 L0.20719002,19.8920267 L0.20719002,8.29455242 C0.20719002,7.20236918 1.09661003,6.31449584 2.19330241,6.31449584 Z M35.4860321,6.31387831 C35.5179362,6.31391751 35.5462978,6.31395898 35.5709252,6.31400279 L35.6865689,6.31446283 C36.1611136,6.29828967 36.6402863,6.44945919 37.0315253,6.77853343 C37.8705322,7.47876515 37.9802841,8.73152473 37.2768142,9.56939332 L37.2768142,9.56939332 L30.2669085,17.9081414 L35.7525192,17.9081414 C36.850038,17.9081414 37.7404498,18.7983252 37.7404498,19.8919937 C37.7404498,20.9881377 36.850038,21.8735356 35.7525192,21.8735356 L35.7525192,21.8735356 L26.0090644,21.8735356 C25.5584866,21.8735356 25.1042725,21.7238513 24.7323723,21.40963 C23.8933654,20.7074179 23.7826218,19.457959 24.4882405,18.6171198 L24.4882405,18.6171198 L31.4969891,10.2811773 L26.9150133,10.2811773 C25.8169986,10.2811773 24.9292315,9.39099349 24.9292315,8.29468445 C24.9292315,7.20233618 25.8169986,6.31446283 26.9150133,6.31446283 L26.9150133,6.31446283 L28.4501182,6.31404974 C28.5261963,6.31403096 28.6042935,6.31401192 28.6842183,6.31399271 Z M42.6184086,6.31449584 C43.7172497,6.31449584 44.6041904,7.20236918 44.6041904,8.29455242 L44.6041904,8.29455242 L44.6041904,19.8920267 C44.6041904,20.9880057 43.7172497,21.8735686 42.6184086,21.8735686 C41.5227079,21.8735686 40.6349408,20.9880057 40.6349408,19.8920267 L40.6349408,19.8920267 L40.6349408,8.29455242 C40.6349408,7.20236918 41.5227079,6.31449584 42.6184086,6.31449584 Z M71.299931,10.0168617 C69.0584472,10.0168617 67.2361362,11.8378272 67.2361362,14.0771494 C67.2361362,16.3158115 69.0584472,18.1402427 71.299931,18.1402427 C73.5429025,18.1402427 75.3678581,16.3158115 75.3678581,14.0771494 C75.3678581,11.8378272 73.5429025,10.0168617 71.299931,10.0168617 Z M2.19330241,-4.65236315e-16 C3.40420949,-4.65236315e-16 4.38751363,0.981281584 4.38751363,2.19179292 C4.38751363,3.39982878 3.40420949,4.38292572 2.19330241,4.38292572 C0.98239534,4.38292572 -8.23615104e-05,3.39982878 -8.23615104e-05,2.19179292 C-8.23615104e-05,0.981281584 0.98239534,-4.65236315e-16 2.19330241,-4.65236315e-16 Z M42.6184086,-4.65236315e-16 C43.8316297,-4.65236315e-16 44.8139421,0.981281584 44.8139421,2.19179292 C44.8139421,3.39982878 43.8316297,4.38292572 42.6184086,4.38292572 C41.4061792,4.38292572 40.4238668,3.39982878 40.4238668,2.19179292 C40.4238668,0.981281584 41.4061792,-4.65236315e-16 42.6184086,-4.65236315e-16 Z" id="Combined-Shape"></path>
                            </g>
                            <path d="M72.8903431,9.76615946 C73.5345745,9.76615946 74.0177481,10.2715378 74.0177481,10.8688031 C74.0177481,11.0985206 73.9487233,11.2593228 73.8796985,11.420125 L73.8796985,11.420125 L67.7364919,25.4328885 C67.483401,26.0071821 67.046244,26.2598712 66.5860787,26.2598712 C65.9418473,26.2598712 65.5046902,25.7544929 65.5046902,25.1572275 C65.5046902,24.9275101 65.573715,24.7667079 65.6427398,24.6059057 L65.6427398,24.6059057 L67.0692522,21.3209464 L62.6746737,11.420125 C62.6056489,11.2593228 62.5366241,11.0985206 62.5366241,10.8688031 C62.5366241,10.2715378 63.0197977,9.76615946 63.6640291,9.76615946 C64.1241944,9.76615946 64.5613514,10.0188486 64.8144423,10.5931422 L64.8144423,10.5931422 L68.265682,18.6102807 L71.7399299,10.5931422 C71.9930208,10.0188486 72.4301779,9.76615946 72.8903431,9.76615946 Z M54.817403,9.69724423 C56.5200145,9.69724423 57.9925435,10.5701705 58.5907583,11.9025316 L58.5907583,11.9025316 L58.5907583,10.9836619 C58.5907583,10.3174813 59.1429567,9.76615946 59.8101964,9.76615946 C60.477436,9.76615946 61.0526426,10.3174813 61.0526426,10.9836619 L61.0526426,10.9836619 L61.0526426,20.7007093 C61.0526426,21.3668899 60.477436,21.9182117 59.8101964,21.9182117 C59.1429567,21.9182117 58.5907583,21.3668899 58.5907583,20.7007093 L58.5907583,20.7007093 L58.5907583,19.4602352 C58.4297005,20.4939636 57.0031881,21.9411835 54.817403,21.9411835 C52.2634856,21.9411835 49.2033864,19.9656135 49.2033864,15.807728 C49.2033864,11.7187577 52.2864939,9.69724423 54.817403,9.69724423 Z M100.901094,9.76615946 C101.407276,9.76615946 101.844433,10.2026226 101.844433,10.7309727 L101.844433,10.7309727 L101.844433,20.9304268 C101.844433,21.4817486 101.407276,21.9182117 100.901094,21.9182117 C100.371904,21.9182117 99.9347471,21.4817486 99.9347471,20.9304268 L99.9347471,20.9304268 L99.9347471,10.7309727 C99.9347471,10.2026226 100.371904,9.76615946 100.901094,9.76615946 Z M42.4275041,5.70016088 C46.0167934,5.70016088 48.2946116,7.90544825 48.2946116,10.7998879 C48.2946116,13.8091863 46.0167934,15.9225867 42.4275041,15.9225867 L42.4275041,15.9225867 L39.3443967,15.9225867 L39.3443967,20.6547658 C39.3443967,21.3439181 38.7921983,21.9182117 38.1249587,21.9182117 C37.4117025,21.9182117 36.8595041,21.3439181 36.8595041,20.6547658 L36.8595041,20.6547658 L36.8595041,7.05549374 C36.8595041,6.27445447 37.4347107,5.70016088 38.2169917,5.70016088 L38.2169917,5.70016088 Z M106.270817,6.91766328 C106.800007,6.91766328 107.214155,7.35412641 107.214155,7.85950476 L107.214155,7.85950476 L107.214155,9.8350747 L109.054817,9.8350747 C109.514982,9.8350747 109.860106,10.1337074 109.860106,10.616114 C109.860106,11.0985206 109.514982,11.420125 109.054817,11.420125 L109.054817,11.420125 L107.214155,11.420125 L107.214155,19.2305177 C107.214155,19.9426418 107.513263,20.2412745 108.088469,20.2412745 C108.433593,20.2412745 108.732701,20.1493875 108.985792,20.103444 C109.491974,19.9885853 109.860106,20.3101897 109.860106,20.7696246 C109.860106,21.5966073 108.732701,21.89524 107.697329,21.89524 C106.477891,21.89524 105.304469,21.4587769 105.304469,19.299433 L105.304469,19.299433 L105.304469,11.420125 L104.292106,11.420125 C103.808932,11.420125 103.486817,11.0985206 103.486817,10.616114 C103.486817,10.1337074 103.808932,9.8350747 104.292106,9.8350747 L104.292106,9.8350747 L105.304469,9.8350747 L105.304469,7.85950476 C105.304469,7.35412641 105.741626,6.91766328 106.270817,6.91766328 Z M112.675911,5.37855647 C113.182093,5.37855647 113.61925,5.8150196 113.61925,6.32039795 L113.61925,6.32039795 L113.61925,12.5916839 C113.757299,11.8106446 115.183812,9.72021598 117.921795,9.72021598 C120.084572,9.72021598 122.408407,11.0296054 122.408407,14.8429148 L122.408407,14.8429148 L122.408407,20.9304268 C122.408407,21.4358051 121.97125,21.89524 121.44206,21.89524 C120.912869,21.89524 120.498721,21.4358051 120.498721,20.9304268 L120.498721,20.9304268 L120.498721,14.8429148 C120.498721,12.3389947 118.980175,11.3971532 117.369597,11.3971532 C115.022754,11.3971532 113.826324,13.3727232 113.61925,14.6821126 L113.61925,14.6821126 L113.61925,20.9304268 C113.61925,21.4358051 113.182093,21.89524 112.675911,21.89524 C112.146721,21.89524 111.709564,21.4358051 111.709564,20.9304268 L111.709564,20.9304268 L111.709564,6.32039795 C111.709564,5.8150196 112.146721,5.37855647 112.675911,5.37855647 Z M97.1419504,9.76615946 C97.6481322,9.76615946 98.062281,10.1796508 98.062281,10.6620575 C98.062281,10.8228597 97.9932562,10.9377184 97.9472397,11.0985206 L97.9472397,11.0985206 L94.5420165,21.091229 C94.3809587,21.5506638 94.058843,21.8263248 93.6446942,21.8263248 C93.2305455,21.8263248 92.9084298,21.5506638 92.7243636,21.091229 L92.7243636,21.091229 L89.3191405,12.6376274 L85.9369256,21.091229 C85.7528595,21.5506638 85.4077355,21.8263248 85.016595,21.8263248 C84.6024463,21.8263248 84.2803306,21.5506638 84.1192727,21.091229 L84.1192727,21.091229 L80.7140496,11.0985206 C80.6680331,10.9377184 80.5990083,10.8228597 80.5990083,10.6620575 C80.5990083,10.1796508 81.013157,9.76615946 81.4963306,9.76615946 C81.8644628,9.76615946 82.232595,9.9958769 82.3476364,10.2945096 L82.3476364,10.2945096 L85.1316364,18.9089133 L88.4448264,10.3634248 C88.6058843,9.97290516 88.9049917,9.76615946 89.3191405,9.76615946 C89.7332893,9.76615946 90.055405,9.97290516 90.2164628,10.3634248 L90.2164628,10.3634248 L93.5296529,18.9089133 L96.3136529,10.2945096 C96.4286942,9.97290516 96.7968264,9.76615946 97.1419504,9.76615946 Z M55.2085435,11.7876729 C53.5289402,11.7876729 51.6422625,13.0970623 51.6422625,15.807728 C51.6422625,18.5413654 53.5289402,19.8507548 55.2085435,19.8507548 C56.7731055,19.8507548 58.7057997,18.6562242 58.7057997,15.807728 C58.7057997,12.9362601 56.7731055,11.7876729 55.2085435,11.7876729 Z M42.3354711,7.83653302 L39.3443967,7.83653302 L39.3443967,13.7862146 L42.3354711,13.7862146 C44.4522314,13.7862146 45.8787438,12.9362601 45.8787438,10.7998879 C45.8787438,8.7783745 44.4522314,7.83653302 42.3354711,7.83653302 L42.3354711,7.83653302 Z M100.901094,5.14883904 C101.407276,5.14883904 101.867441,5.58530216 101.867441,6.11365226 C101.867441,6.64200236 101.407276,7.07846549 100.901094,7.07846549 C100.371904,7.07846549 99.9117388,6.64200236 99.9117388,6.11365226 C99.9117388,5.58530216 100.371904,5.14883904 100.901094,5.14883904 Z" id="Combined-Shape" fill="#495057" fill-rule="nonzero"></path>
                        </g>
                    </g>
                </g>
            </g>
        </g>
    </g>
</svg>